<?xml version="1.0" encoding="iso-8859-1"?>
<!-- Generator: Adobe Illustrator 19.0.0, SVG Export Plug-In . SVG Version: 6.00 Build 0)  -->
<svg version="1.1" id="Capa_1" xmlns="http://www.w3.org/2000/svg" xmlns:xlink="http://www.w3.org/1999/xlink" x="0px" y="0px"
	 viewBox="0 0 60 60" style="enable-background:new 0 0 60 60;" xml:space="preserve">
<g>
	<g>
		<circle cx="5" cy="13" r="1"/>
		<circle cx="5" cy="47" r="1"/>
		<circle cx="55" cy="13" r="1"/>
		<circle cx="55" cy="47" r="1"/>
		<path d="M45.275,34.813c-1.294-2.947-5.705-3.765-10.044-1.857c-1.993,0.876-3.66,2.207-4.692,3.749
			c-1.125,1.68-1.386,3.422-0.734,4.905c0.652,1.483,2.111,2.469,4.109,2.777c0.43,0.065,0.875,0.099,1.33,0.099
			c1.485,0,3.079-0.349,4.604-1.02C44.187,41.562,46.57,37.76,45.275,34.813L45.275,34.813z M39.044,41.636
			c-1.648,0.725-3.362,1.003-4.825,0.774c-1.299-0.199-2.216-0.77-2.583-1.604c-0.366-0.835-0.166-1.896,0.564-2.988
			c0.824-1.229,2.186-2.305,3.836-3.03c1.306-0.573,2.644-0.85,3.825-0.85c1.715,0,3.101,0.582,3.584,1.681
			C44.26,37.474,42.244,40.229,39.044,41.636z"/>
		<path d="M56.911,8H34H3.089C1.386,8,0,9.386,0,11.089V34v14.911C0,50.614,1.386,52,3.089,52h53.822C58.614,52,60,50.614,60,48.911
			V44V18v-6.911C60,9.386,58.614,8,56.911,8z M2,11.089C2,10.488,2.488,10,3.089,10h28.89C31.453,22.22,21.347,32,9,32H2V11.089z
			 M58,21h-3v2h3v1h-3v2h3v1h-3v2h3v1h-3v2h3v4h-3v2h3v1h-2v2h2v1h-2.465L54,39.697V20h4V21z M58,18h-6v22.303L54.465,44H58v4.911
			C58,49.512,57.512,50,56.911,50H3.089C2.488,50,2,49.512,2,48.911V34h7c13.45,0,24.447-10.677,24.975-24h22.937
			c0.6,0,1.088,0.488,1.088,1.089V18z"/>
		<rect x="4" y="28" width="2" height="2"/>
		<rect x="4" y="25" width="2" height="2"/>
		<rect x="4" y="22" width="2" height="2"/>
		<rect x="4" y="19" width="2" height="2"/>
		<rect x="4" y="16" width="2" height="2"/>
		<rect x="10" y="14" width="13" height="2"/>
		<rect x="10" y="17" width="10" height="2"/>
		<rect x="10" y="20" width="11" height="2"/>
		<rect x="10" y="23" width="4" height="2"/>
	</g>
</g>
<g>
</g>
<g>
</g>
<g>
</g>
<g>
</g>
<g>
</g>
<g>
</g>
<g>
</g>
<g>
</g>
<g>
</g>
<g>
</g>
<g>
</g>
<g>
</g>
<g>
</g>
<g>
</g>
<g>
</g>
</svg>
